<?xml version="1.0" encoding="utf-8"?>
<!-- Generator: Adobe Illustrator 16.0.0, SVG Export Plug-In . SVG Version: 6.00 Build 0)  -->
<!DOCTYPE svg PUBLIC "-//W3C//DTD SVG 1.1//EN" "http://www.w3.org/Graphics/SVG/1.1/DTD/svg11.dtd">
<svg version="1.1" id="Capa_1" xmlns="http://www.w3.org/2000/svg" xmlns:xlink="http://www.w3.org/1999/xlink" x="0px" y="0px"
	 width="512px" height="512px" viewBox="0 0 512 512" enable-background="new 0 0 512 512" xml:space="preserve">
<path fill="#FFFFFF" d="M477.658,128.021C406.978,5.6,250.431-36.347,128.02,34.346c-122.421,70.67-164.37,227.21-93.677,349.627
	c70.67,122.421,227.212,164.375,349.625,93.688C506.391,406.967,548.358,250.435,477.658,128.021z M358.378,433.314
	C260.455,489.87,135.21,456.31,78.671,358.368C22.119,260.445,55.69,135.202,153.616,78.674
	c97.929-56.552,223.167-22.996,279.709,74.943C489.87,251.554,456.309,376.771,358.378,433.314z M383.415,239.767l-198.399-115.71
	c-18.08-10.556-32.663-2.116-32.562,18.796l1.016,229.674c0.092,20.908,14.853,29.418,32.986,18.946l196.881-113.67
	C401.451,267.351,401.489,250.323,383.415,239.767z"/>
</svg>
