<?xml version="1.0" encoding="utf-8"?>
<!-- Generator: Adobe Illustrator 19.0.0, SVG Export Plug-In . SVG Version: 6.00 Build 0)  -->
<svg version="1.1" id="Layer_1" xmlns="http://www.w3.org/2000/svg" xmlns:xlink="http://www.w3.org/1999/xlink" x="0px" y="0px"
	 viewBox="0 0 1024 768" style="enable-background:new 0 0 1024 768;" xml:space="preserve">
<style type="text/css">
	.st0{fill:#FFFFFF;}
</style>
<g id="XMLID_89_">
	<g id="XMLID_199_">
		<g id="XMLID_158_">
			<path id="XMLID_174_" class="st0" d="M297.4,604.5c0,8.2-4.1,12.3-12.3,12.3h-42.3c-8,0-11.9-4.1-11.9-12.3V494.7
				c0-8.2,4.1-12.4,12.2-12.4h42c8.2,0,12.3,4.1,12.3,12.4v28.7h-20.2v-23.8H251v99.9h26.2v-37.6h-14.9v-17.1h35.1V604.5z"/>
			<path id="XMLID_172_" class="st0" d="M380.7,604.5c0,8.2-4.1,12.3-12.4,12.3h-42.7c-8.1,0-12.2-4.1-12.2-12.3V482.3h20.1v117.2
				h27.1V482.3h20.1V604.5z"/>
			<path id="XMLID_169_" class="st0" d="M465,616.7h-19.9l-4-25.5h-25.2l-4,25.5H392v-0.3l26-134.3h21.1L465,616.7z M438.2,574
				l-9.8-60.6l-9.9,60.6H438.2z"/>
			<path id="XMLID_167_" class="st0" d="M543.3,616.7h-21.7l-14.8-47.3l-14.9,47.3h-21.4v-0.7l25.1-68.1
				c-15.7-43.5-23.6-65.4-23.5-65.6h21.5l13.4,43.8l13.5-43.8h21.3v0.8l-23.5,64.3L543.3,616.7z"/>
			<path id="XMLID_165_" class="st0" d="M574.1,616.7H554V482.3h20.1V616.7z"/>
			<path id="XMLID_163_" class="st0" d="M658.7,616.7h-17.6l-32.2-84.6c0.9,4.1,1.3,7.4,1.3,9.7v74.9h-19.6V482.3h17.6l32.2,82.9
				c-0.9-4.1-1.3-7.4-1.3-9.7v-73.2h19.6V616.7z"/>
			<path id="XMLID_161_" class="st0" d="M695.3,616.7h-20.1V482.3h20.1V616.7z"/>
			<path id="XMLID_159_" class="st0" d="M793.1,616.7h-19.3v-66.3c0-3.5,0.4-8.4,1.2-14.6l-17.4,68.6h-10.2l-17.4-68.6
				c0.8,6.4,1.2,11.2,1.2,14.6v66.3h-19.3V482.3h19l21.1,74.3c0.2,0.8,0.4,2.8,0.5,6.1c0-1.4,0.2-3.5,0.5-6.1l21.1-74.3h19V616.7z"
				/>
		</g>
	</g>
	<g id="XMLID_47_">
		<g id="XMLID_103_">
			<path id="XMLID_113_" class="st0" d="M282.9,737.5c0,1.9-0.6,3.5-1.8,4.7c-1.2,1.2-2.8,1.8-4.7,1.8h-24.3c-1.9,0-3.5-0.6-4.7-1.8
				c-1.2-1.2-1.8-2.8-1.8-4.7v-79.2c0-1.9,0.6-3.5,1.8-4.7c1.2-1.2,2.8-1.8,4.7-1.8h24.3c1.9,0,3.5,0.6,4.7,1.8
				c1.2,1.2,1.8,2.8,1.8,4.7v21.5h-8.3V659h-20.9v77.8h20.9v-31.9h-9.9v-7.1h18.1V737.5z"/>
			<path id="XMLID_110_" class="st0" d="M409.7,744.1h-8.1l-3.2-20.5H380l-3.2,20.5h-7.9v-0.2l16.5-92.3h8.1L409.7,744.1z
				 M397.3,716.3l-8.1-50l-8.1,50H397.3z"/>
			<path id="XMLID_108_" class="st0" d="M541.4,744.1h-7.7v-58.5c0-0.8,0.3-3.2,0.8-7.3l-15.1,57.1h-1.7l-15.1-57.1
				c0.6,4.1,0.8,6.5,0.8,7.3v58.5h-7.7v-92.3h7.6l15,60.1c0.1,0.3,0.2,1.2,0.2,2.7c0-0.6,0.1-1.5,0.2-2.7l15-60.1h7.6V744.1z"/>
			<path id="XMLID_106_" class="st0" d="M661.4,744.1h-30.3v-92.3h30v7.3h-21.8v34.5h19.8v7.4h-19.8v36h22.1V744.1z"/>
			<path id="XMLID_104_" class="st0" d="M785.1,737.5c0,1.9-0.6,3.5-1.8,4.7c-1.2,1.2-2.8,1.8-4.7,1.8h-23.2c-1.9,0-3.5-0.6-4.7-1.8
				c-1.2-1.2-1.9-2.8-1.9-4.7v-23.4h8.2v22.7h19.9v-22L751.4,684c-1.8-2.1-2.7-4.5-2.7-7v-18.7c0-1.9,0.6-3.5,1.9-4.7
				c1.2-1.2,2.8-1.8,4.7-1.8h23.2c1.9,0,3.5,0.6,4.7,1.8c1.2,1.2,1.8,2.8,1.8,4.7v21.5h-8.2V659h-19.9v19.5l25.6,30.8
				c1.7,2,2.5,4.3,2.5,6.9V737.5z"/>
		</g>
	</g>
</g>
<g id="XMLID_24_">
	<path id="XMLID_75_" class="st0" d="M718.6,183.4l11.4-73.1l15.4-98.2l-92.9,36L583.4,75L512,17.7l-68.6,55l-72.1-27.9l-92.9-36
		l15.4,98.2l11.9,76.2L179.9,284.1c183.4,205.1,480.8,206,664.1,0L718.6,183.4z"/>
	<path id="XMLID_73_" d="M512,47.1L220.7,280.7c28.2,31.6,59.5,57.6,92.8,78.1l161.7-112l36.8,36.8l36.8-36.8L710.7,359
		c33.2-20.5,64.5-46.6,92.6-78.2L512,47.1z"/>
	<polygon id="XMLID_72_" points="512,342.8 480,302.1 512,283.7 542.3,302.1 	"/>
	<polygon id="XMLID_71_" points="661.9,74.7 608.8,95.3 653.1,130.8 697.5,166.4 706.2,110.3 715,54.1 	"/>
	<polygon id="XMLID_70_" points="361.9,71.3 415,91.9 370.7,127.5 326.3,163.1 317.6,106.9 308.8,50.7 	"/>
	<circle id="XMLID_69_" class="st0" cx="427.3" cy="212.9" r="20.3"/>
	<circle id="XMLID_67_" class="st0" cx="596.7" cy="212.9" r="20.3"/>
	<rect id="XMLID_65_" x="486.8" y="351.3" width="50.5" height="14.6"/>
</g>
</svg>
