<?xml version="1.0" encoding="utf-8"?>
<!-- Generator: Adobe Illustrator 16.0.0, SVG Export Plug-In . SVG Version: 6.00 Build 0)  -->
<!DOCTYPE svg PUBLIC "-//W3C//DTD SVG 1.1//EN" "http://www.w3.org/Graphics/SVG/1.1/DTD/svg11.dtd">
<svg version="1.1" id="Layer_1" xmlns="http://www.w3.org/2000/svg" xmlns:xlink="http://www.w3.org/1999/xlink" x="0px" y="0px"
	 width="121.346px" height="36.705px" viewBox="0 0 121.346 36.705" enable-background="new 0 0 121.346 36.705"
	 xml:space="preserve">
<g>
	<g id="XMLID_129_">
		<path id="XMLID_140_" fill="#FFFFFF" d="M46.038,14.924l0.976-6.244l1.313-8.391l-7.938,3.078l-5.905,2.29l-6.102-4.894
			l-5.864,4.704l-6.16-2.389L8.42,0l1.312,8.391l1.02,6.514L0,23.526c15.679,17.535,41.093,17.605,56.764,0L46.038,14.924z"/>
		<path id="XMLID_139_" d="M28.382,3.272L3.481,23.243c2.412,2.697,5.087,4.922,7.933,6.677l13.821-9.571l3.146,3.146l3.146-3.146
			l13.837,9.582c2.841-1.755,5.511-3.981,7.917-6.688L28.382,3.272z"/>
		<polygon id="XMLID_138_" points="28.382,28.546 25.644,25.071 28.382,23.495 30.976,25.071 		"/>
		<polygon id="XMLID_137_" points="41.193,5.637 36.653,7.397 40.441,10.432 44.233,13.475 44.984,8.675 45.734,3.875 		"/>
		<polygon id="XMLID_136_" points="15.553,5.347 20.093,7.108 16.305,10.143 12.513,13.186 11.762,8.386 11.012,3.586 		"/>
		<circle id="XMLID_135_" fill="#FFFFFF" cx="21.144" cy="17.447" r="1.737"/>
		<circle id="XMLID_134_" fill="#FFFFFF" cx="35.62" cy="17.447" r="1.737"/>
		<rect id="XMLID_133_" x="26.226" y="29.274" width="4.313" height="1.244"/>
	</g>
	<g id="XMLID_19_">
		<g id="XMLID_47_">
			<path id="XMLID_127_" d="M74.149,16.377v-5.748c0.706,0,1.449,0,2.145,0v5.785c0,1.908-1.673,3.01-3.457,3.01
				c-1.771,0-3.443-1.102-3.443-3.01v-5.785c0.693,0,1.424,0,2.118,0v5.748c0,0.706,0.681,1.053,1.325,1.053
				C73.48,17.43,74.149,17.083,74.149,16.377z"/>
			<path id="XMLID_124_" d="M90.025,16.7l-1.586,2.725h-2.392v-0.334l2.8-4.262l-2.502-3.741v-0.334h2.305l1.375,2.254h0.063
				l1.388-2.254h2.291v0.334l-2.502,3.741l2.813,4.262v0.334h-2.393L90.1,16.7H90.025z"/>
			<path id="XMLID_122_" d="M97.23,10.753h-2.186v8.671h2.186V10.753z"/>
			<path id="XMLID_120_" d="M101.255,15.151v4.262c-0.77,0-1.536,0-2.292,0v-8.709h0.806l4.386,4.286v-4.249
				c0.757,0,1.512,0,2.268,0v8.684h-0.792L101.255,15.151z"/>
			<path id="XMLID_118_" d="M120.553,10.728h0.793v8.697c-0.756,0-1.512,0-2.268,0V15.56l-1.847,1.933h-0.248l-1.833-1.933v3.865
				c-0.756,0-1.512,0-2.268,0v-8.697h0.818l3.394,3.767L120.553,10.728z"/>
			<path id="XMLID_96_" d="M110.745,10.753h-2.186v8.671h2.186V10.753z"/>
			<path id="XMLID_60_" d="M67.961,12.422l-1.792,0.908c-0.429-0.542-1.099-0.845-2.081-0.845c-1.502,0-2.549,1.047-2.549,2.473
				c0,1.362,1.072,2.536,2.574,2.536c0.921,0,1.652-0.29,2.106-0.719v-0.833h-2.612v-1.59h4.441v3.179
				c-0.063,0.126-1.413,1.893-3.924,1.893c-2.839,0-4.668-2.132-4.668-4.441c0-2.385,1.956-4.441,4.656-4.441
				C65.766,10.542,67.104,11.287,67.961,12.422z"/>
			<polygon id="XMLID_48_" points="83.256,19.425 85.501,19.425 81.438,10.642 80.482,10.642 76.434,19.425 78.684,19.425 
				79.508,17.51 81.576,17.5 80.904,15.96 80.17,15.97 80.953,14.147 			"/>
		</g>
		<g id="XMLID_20_">
			<path id="XMLID_44_" d="M109.502,21.087h0.463v5.075c-0.441,0-0.882,0-1.322,0v-2.255l-1.078,1.127h-0.145l-1.07-1.127v2.255
				c-0.439,0-0.882,0-1.322,0v-5.075h0.478l1.98,2.197L109.502,21.087z"/>
			<path id="XMLID_42_" d="M114.408,22.259c-0.753,0-1.129,0-1.873,0v0.715h1.722c0,0.383,0,0.768,0,1.15h-1.722
				c0,0.296,0,0.585,0,0.889c0.744,0,1.179,0,1.938,0c0,0.377,0,0.768,0,1.149c-1.187,0-2.054,0-3.226,0c0-1.69,0-3.384,0-5.062
				c1.172,0,1.975,0,3.16,0C114.408,21.478,114.408,21.868,114.408,22.259z"/>
			<path id="XMLID_38_" d="M118.064,24.544c0-0.354-0.42-0.412-0.926-0.439c-1.099-0.08-1.821-0.457-1.836-1.555
				c-0.044-2.184,3.89-2.184,3.86,0c-0.455,0-0.788,0-1.229,0c0-0.674-1.358-0.615-1.403-0.016
				c-0.027,0.384,0.349,0.463,0.804,0.514c1.005,0.108,1.987,0.238,1.987,1.504c0,2.125-4.12,2.184-4.092-0.043
				c0.435,0,0.811,0,1.25,0C116.48,25.151,118.064,25.138,118.064,24.544z"/>
			<path id="XMLID_22_" d="M98.862,22.022l-1.06,0.537c-0.253-0.32-0.648-0.5-1.23-0.5c-0.887,0-1.506,0.618-1.506,1.463
				c0,0.805,0.635,1.498,1.521,1.498c0.545,0,0.977-0.172,1.246-0.424v-0.492h-1.545v-0.94h2.625v1.88
				c-0.037,0.074-0.835,1.118-2.318,1.118c-1.679,0-2.76-1.261-2.76-2.625c0-1.41,1.155-2.626,2.752-2.626
				C97.564,20.911,98.355,21.353,98.862,22.022z"/>
			<polygon id="XMLID_21_" points="103.105,26.162 104.372,26.162 102.078,21.204 101.539,21.204 99.254,26.162 100.523,26.162 
				100.988,25.081 102.156,25.075 101.777,24.206 101.362,24.212 101.805,23.183 			"/>
		</g>
	</g>
</g>
</svg>
