<?xml version="1.0" encoding="utf-8"?>
<!-- Generator: Adobe Illustrator 16.0.0, SVG Export Plug-In . SVG Version: 6.00 Build 0)  -->
<!DOCTYPE svg PUBLIC "-//W3C//DTD SVG 1.1//EN" "http://www.w3.org/Graphics/SVG/1.1/DTD/svg11.dtd">
<svg version="1.1" id="Camada_1" xmlns="http://www.w3.org/2000/svg" xmlns:xlink="http://www.w3.org/1999/xlink" x="0px" y="0px"
	 width="56.833px" height="17.421px" viewBox="0 0 56.833 17.421" enable-background="new 0 0 56.833 17.421" xml:space="preserve">
<g>
	<path id="SVGID_1_" d="M12.324,4.987c-0.326-1.165-0.844-2.159-1.649-2.866C9.985,1.529,9.41,1.205,8.719,0.994V0.841H12.4
		l0.096,4.146H12.324L12.324,4.987z M9.659,12.879H3.179v-0.152c0.997-0.172,1.515-0.555,1.515-2.216v-9.67h3.45v9.67
		c0,1.566,0.422,2.044,1.514,2.216L9.659,12.879L9.659,12.879z M0.496,4.987H0.323l0.115-4.146h3.68v0.153
		c-0.69,0.21-1.265,0.535-1.956,1.127C1.358,2.828,0.821,3.822,0.496,4.987L0.496,4.987z M12.879,12.879v-0.133
		c0.729-0.134,0.997-0.364,0.997-1.453V6.65c0-0.668-0.192-0.936-0.518-1.185c-0.077-0.058-0.288-0.191-0.383-0.229V5.141
		l3.911-1.127l0.039,0.057c-0.019,0.784-0.058,1.873-0.058,2.637v4.586c0,1.07,0.345,1.318,1.035,1.452v0.133H12.879L12.879,12.879z
		 M15.353,3.058c-0.901,0-1.63-0.63-1.63-1.529c0-0.898,0.729-1.529,1.63-1.529c0.901,0,1.629,0.631,1.629,1.529
		C16.981,2.427,16.253,3.058,15.353,3.058L15.353,3.058z M24.208,12.879v-0.133c0.632-0.115,0.882-0.383,0.882-1.299V7.033
		c0-0.994-0.403-1.414-1.285-1.414c-0.307,0-0.652,0.076-0.901,0.172V5.733c0.538-0.86,1.707-1.682,2.952-1.682
		c1.688,0,2.243,1.07,2.243,2.561v4.682c0,1.089,0.268,1.318,0.978,1.452v0.133H24.208L24.208,12.879z M23.384,12.879h-4.889v-0.133
		c0.729-0.134,0.997-0.364,0.997-1.453V6.612c0-0.669-0.192-0.917-0.518-1.147c-0.077-0.077-0.25-0.191-0.345-0.229V5.141
		l3.815-1.127l0.038,0.057v7.376c0,0.917,0.25,1.185,0.901,1.299V12.879L23.384,12.879z M35.826,12.879v-0.152
		c0.67-0.439,1.111-1.949,1.111-3.822c0-2.446-0.709-3.631-2.167-3.631c-0.307,0-0.651,0.058-0.881,0.172V5.388
		c0.383-0.554,1.61-1.337,2.798-1.337c2.531,0,3.432,1.777,3.432,3.974C40.119,10.338,38.911,12.288,35.826,12.879L35.826,12.879z
		 M35.269,12.822v0.172c-0.192,0.018-0.46,0.038-0.767,0.018c-0.249,0-0.69-0.076-0.959-0.171v2.541
		c0,0.994,0.403,1.357,1.246,1.491v0.134h-5.233v-0.134c0.709-0.134,0.978-0.363,0.978-1.453V6.669c0-0.688-0.173-0.917-0.518-1.165
		l-0.364-0.23V5.179l3.833-1.146l0.058,0.058v6.268c0,0.592,0.077,1.261,0.441,1.758C34.292,12.555,34.79,12.765,35.269,12.822
		L35.269,12.822z M40.924,12.879v-0.133c0.729-0.134,0.997-0.364,0.997-1.453V6.65c0-0.668-0.191-0.936-0.518-1.185
		c-0.077-0.058-0.288-0.191-0.383-0.229V5.141l3.911-1.127l0.039,0.057c-0.019,0.784-0.058,1.873-0.058,2.637v4.586
		c0,1.07,0.345,1.318,1.036,1.452v0.133H40.924L40.924,12.879z M43.396,3.058c-0.9,0-1.629-0.63-1.629-1.529
		C41.767,0.631,42.496,0,43.396,0c0.902,0,1.63,0.631,1.63,1.529C45.026,2.427,44.298,3.058,43.396,3.058L43.396,3.058z
		 M50.72,12.879v-0.152c0.517-0.058,0.824-0.249,0.824-0.707c0-0.23-0.153-0.612-0.441-1.051C50.777,10.396,47.92,6,47.652,5.618
		c-0.441-0.631-0.939-1.089-1.688-1.185V4.28h5.866v0.153c-0.518,0.038-0.863,0.249-0.863,0.669c0,0.229,0.229,0.707,0.441,1.051
		c0.288,0.497,2.971,4.567,3.355,5.16c0.556,0.822,1.035,1.242,1.725,1.414v0.152H50.72L50.72,12.879z M53.192,7.033L53.077,6.88
		c0.307-0.517,0.537-1.147,0.537-1.586c0-0.573-0.383-0.802-0.997-0.86V4.28h3.719v0.153C55.147,4.72,54.132,5.675,53.192,7.033
		L53.192,7.033z M49.301,10.013l0.115,0.172c-0.249,0.478-0.537,1.051-0.537,1.509c0,0.573,0.5,0.974,1.055,1.033v0.152h-3.892
		v-0.152C47.384,12.382,48.361,11.37,49.301,10.013L49.301,10.013z"/>
</g>
</svg>
