<?xml version="1.0" encoding="utf-8"?>
<!-- Generator: Adobe Illustrator 16.0.0, SVG Export Plug-In . SVG Version: 6.00 Build 0)  -->
<!DOCTYPE svg PUBLIC "-//W3C//DTD SVG 1.1//EN" "http://www.w3.org/Graphics/SVG/1.1/DTD/svg11.dtd">
<svg version="1.1" id="Camada_1" xmlns="http://www.w3.org/2000/svg" xmlns:xlink="http://www.w3.org/1999/xlink" x="0px" y="0px"
	 width="199px" height="61px" viewBox="0 0 199 61" enable-background="new 0 0 199 61" xml:space="preserve">
<g>
	<path id="SVGID_1_" fill="#FFFFFF" d="M42.663,17.597c-1.148-4.111-2.976-7.617-5.817-10.112c-2.435-2.09-4.464-3.235-6.899-3.978
		v-0.54h12.987l0.337,14.63H42.663L42.663,17.597z M33.261,45.441H10.4v-0.537c3.518-0.607,5.343-1.956,5.343-7.82V2.967h12.174
		v34.117c0,5.525,1.488,7.213,5.343,7.82L33.261,45.441L33.261,45.441z M0.931,17.597H0.323l0.406-14.63h12.985v0.54
		C11.279,4.25,9.25,5.394,6.815,7.484C3.975,9.979,2.081,13.486,0.931,17.597L0.931,17.597z M44.624,45.441V44.97
		c2.571-0.473,3.518-1.282,3.518-5.124V23.463c0-2.359-0.677-3.303-1.828-4.18c-0.27-0.203-1.015-0.675-1.352-0.808v-0.338
		l13.798-3.978l0.136,0.203c-0.068,2.764-0.204,6.606-0.204,9.304v16.182c0,3.774,1.219,4.65,3.653,5.123v0.471H44.624
		L44.624,45.441z M53.349,10.788c-3.178,0-5.749-2.224-5.749-5.394C47.6,2.226,50.17,0,53.349,0c3.18,0,5.749,2.226,5.749,5.394
		C59.097,8.564,56.528,10.788,53.349,10.788L53.349,10.788z M84.596,45.441V44.97c2.231-0.405,3.112-1.349,3.112-4.584V24.813
		c0-3.506-1.421-4.989-4.532-4.989c-1.083,0-2.299,0.269-3.18,0.607v-0.204c1.896-3.034,6.02-5.933,10.416-5.933
		c5.953,0,7.914,3.775,7.914,9.035v16.519c0,3.842,0.946,4.65,3.449,5.123v0.471H84.596L84.596,45.441z M81.688,45.441H64.44V44.97
		c2.571-0.473,3.517-1.282,3.517-5.124V23.329c0-2.361-0.677-3.237-1.825-4.046c-0.271-0.271-0.881-0.675-1.219-0.808v-0.338
		l13.461-3.978l0.134,0.203v26.025c0,3.235,0.881,4.18,3.18,4.584V45.441L81.688,45.441z M125.583,45.441v-0.537
		c2.366-1.551,3.922-6.877,3.922-13.485c0-8.629-2.502-12.811-7.644-12.811c-1.082,0-2.299,0.203-3.109,0.607v-0.204
		c1.352-1.955,5.68-4.718,9.873-4.718c8.928,0,12.107,6.269,12.107,14.022C140.732,36.477,136.471,43.354,125.583,45.441
		L125.583,45.441z M123.62,45.24v0.607c-0.677,0.064-1.623,0.133-2.705,0.064c-0.879,0-2.435-0.268-3.383-0.604v8.965
		c0,3.506,1.421,4.789,4.396,5.261v0.473h-18.463v-0.473c2.502-0.472,3.449-1.282,3.449-5.125V23.53
		c0-2.427-0.609-3.235-1.827-4.111l-1.284-0.811v-0.337l13.525-4.045l0.203,0.203v22.115c0,2.088,0.271,4.449,1.557,6.202
		C120.172,44.297,121.93,45.037,123.62,45.24L123.62,45.24z M143.57,45.441V44.97c2.57-0.473,3.518-1.282,3.518-5.124V23.463
		c0-2.359-0.677-3.303-1.827-4.18c-0.27-0.203-1.016-0.675-1.352-0.808v-0.338l13.798-3.978l0.136,0.203
		c-0.067,2.764-0.204,6.606-0.204,9.304v16.182c0,3.774,1.219,4.65,3.654,5.123v0.471H143.57L143.57,45.441z M152.296,10.788
		c-3.178,0-5.749-2.224-5.749-5.394c0-3.168,2.571-5.394,5.749-5.394c3.181,0,5.749,2.226,5.749,5.394
		C158.045,8.564,155.477,10.788,152.296,10.788L152.296,10.788z M178.133,45.441v-0.537c1.825-0.204,2.907-0.879,2.907-2.495
		c0-0.812-0.541-2.158-1.558-3.709c-1.148-2.023-11.227-17.529-12.172-18.877c-1.557-2.227-3.313-3.843-5.953-4.181v-0.54h20.697
		v0.54c-1.826,0.135-3.044,0.878-3.044,2.361c0,0.808,0.81,2.493,1.556,3.707c1.016,1.752,10.483,16.114,11.838,18.205
		c1.961,2.899,3.65,4.382,6.085,4.989v0.537H178.133L178.133,45.441z M186.857,24.813l-0.406-0.54
		c1.083-1.822,1.894-4.046,1.894-5.597c0-2.022-1.352-2.831-3.518-3.034v-0.54h13.121v0.54
		C193.756,16.654,190.171,20.024,186.857,24.813L186.857,24.813z M173.127,35.329l0.405,0.606c-0.88,1.685-1.896,3.707-1.896,5.325
		c0,2.023,1.762,3.438,3.723,3.644v0.537h-13.73v-0.537C166.363,43.688,169.812,40.116,173.127,35.329L173.127,35.329z"/>
</g>
</svg>
