<?xml version="1.0" encoding="utf-8"?>
<!-- Generator: Adobe Illustrator 16.0.0, SVG Export Plug-In . SVG Version: 6.00 Build 0)  -->
<!DOCTYPE svg PUBLIC "-//W3C//DTD SVG 1.1//EN" "http://www.w3.org/Graphics/SVG/1.1/DTD/svg11.dtd">
<svg version="1.1" id="Layer_1" xmlns="http://www.w3.org/2000/svg" xmlns:xlink="http://www.w3.org/1999/xlink" x="0px" y="0px"
	 width="756.416px" height="203.015px" viewBox="0 0 756.416 203.015" enable-background="new 0 0 756.416 203.015"
	 xml:space="preserve">
<path fill="#D70A8B" d="M178.637,84.243V47.375h-46.785v15.247h29.612v15.252c-4.442,4.291-13.326,8.884-23.39,8.884
	c-19.543,0-34.055-15.1-34.055-35.682c0-20.874,14.512-35.683,34.055-35.683c10.957,0,20.285,5.779,25.613,13.18l14.063-8.143
	C169.904,9.176,157.32,0,138.074,0C109.35,0,86.252,19.987,86.252,51.076c0,30.943,23.098,51.227,51.822,51.227
	C155.096,102.303,169.018,95.047,178.637,84.243 M232.678,100.377h15.545V28.865h-15.545v50.194
	c-3.555,4.734-10.367,9.328-18.212,9.328c-8.884,0-14.511-3.555-14.511-14.657V28.865H184.41v50.638
	c0,14.505,7.699,22.654,23.098,22.654c11.254,0,20.138-5.627,25.17-11.254V100.377z M273.981,10.513
	c0-5.335-4.296-9.626-9.625-9.626s-9.62,4.291-9.62,9.626c0,5.323,4.291,9.62,9.62,9.62S273.981,15.836,273.981,10.513
	 M256.511,100.377h15.545V28.865h-15.545V100.377z M324.171,84.091c-3.701,4.886-10.361,7.401-17.028,7.401
	c-8.732,0-15.398-5.031-15.398-12.876c0-7.7,6.666-12.883,15.398-12.883c6.667,0,13.327,2.516,17.028,7.401V84.091z
	 M324.171,100.377h15.544V52.85c0-19.099-13.916-25.76-29.904-25.76c-11.4,0-21.767,3.555-30.056,11.546l6.515,10.811
	c6.07-6.217,13.174-9.182,21.172-9.182c9.771,0,16.729,5.038,16.729,13.326V64.25c-5.33-6.071-13.474-9.176-23.244-9.176
	c-11.698,0-24.728,6.812-24.728,23.39c0,15.696,13.182,23.693,24.728,23.693c9.474,0,17.914-3.409,23.244-9.626V100.377z"/>
<path fill="#0082C9" d="M723.926,186.688c0,8.762,7.565,16.152,16.333,16.152c8.761,0,16.157-7.391,16.157-16.152
	c0-8.598-7.396-15.988-16.157-15.988C731.491,170.7,723.926,178.09,723.926,186.688 M717.568,117.937h-26.466v83.017h26.466v-52.938
	c3.439-4.64,12.545-7.565,19.421-7.565c2.749,0,4.985,0.177,6.532,0.689v-25.438c-9.795,0-20.454,5.674-25.953,12.375V117.937z
	 M551.366,150.077c1.033-6.018,5.505-12.889,17.021-12.889c12.2,0,16.496,7.046,17.185,12.889H551.366z M631.113,176.029
	c0-6.532,6.363-9.625,13.239-9.625c5.843,0,12.031,1.892,14.78,5.843v7.391c-2.749,3.957-8.938,6.018-14.78,6.018
	C637.477,185.655,631.113,182.561,631.113,176.029 M524.387,159.358c0,26.986,19.59,43.657,45.197,43.657
	c12.726,0,26.472-3.608,34.72-10.998l-11.511-17.359c-4.816,4.465-14.441,7.045-20.284,7.045c-12.031,0-18.907-6.187-20.798-13.576
	h53.987c0.007-0.007,0.013-0.013,0.013-0.019h0.035v0.019h-0.048c-0.554,2.281-0.881,4.779-0.881,7.559
	c0,18.562,15.813,27.33,28.532,27.33c10.659,0,20.629-4.127,25.783-10.315v8.254h26.466v-51.909
	c0-25.783-18.732-33.174-38.672-33.174c-12.713,0-26.979,3.782-37.638,12.895l9.795,18.388c6.707-5.668,14.955-8.937,23.203-8.937
	c10.658,0,16.846,4.984,16.846,12.205v8.248c-4.985-6.188-14.78-9.794-25.783-9.794c-7.868,0-16.91,2.573-22.672,9.292v0.006
	c0,0,0,0,0-0.006c-1.599-25.905-18.889-42.297-42.29-42.297C542.43,115.871,524.387,135.297,524.387,159.358 M267.777,117.937
	h-26.467v83.017h26.467v-53.626c3.094-3.782,8.248-8.079,16.157-8.079c8.248,0,13.577,3.607,13.577,13.747v47.958h26.473v-9.351
	h0.402c8.96,7.01,23.104,11.412,37.061,11.412c23.717,0,37.638-11.342,37.638-27.155c0-34.031-48.122-24.581-48.122-33.691
	c0-3.264,4.127-5.668,10.309-5.668c9.971,0,19.426,4.296,24.411,9.105l6.567-12.136h0.063l19.321,67.483h31.282l17.359-71.844
	l17.36,71.844h31.281l32.829-114.643h-33.349l-17.185,76.485l-19.596-76.485h-22.684l-19.595,76.485l-17.36-76.485h-33.173
	l10.438,36.454c0,0,0,0,0.006,0h-0.006c-7.852-4.215-17.268-6.895-28.142-6.895c-22.858,0-35.577,12.72-35.577,27.33
	c0,33.687,48.297,23.033,48.297,33.343c0,3.612-3.264,5.843-11.174,5.843c-9.794,0-23.027-5.668-29.221-11.167l-9.443,16.24v0.08
	h-0.054l0.054-0.08v-45.291c0-15.295-8.599-26.298-27.33-26.298c-14.098,0-23.893,6.362-28.877,12.206V117.937z M101.574,150.077
	c1.033-6.018,5.504-12.889,17.021-12.889c12.199,0,16.496,7.046,17.184,12.889H101.574z M181.322,176.029
	c0-6.532,6.362-9.625,13.238-9.625c5.844,0,12.031,1.892,14.78,5.843v7.391c-2.749,3.957-8.937,6.018-14.78,6.018
	C187.685,185.655,181.322,182.561,181.322,176.029 M74.595,159.358c0,26.986,19.589,43.657,45.203,43.657
	c12.719,0,26.466-3.608,34.714-10.998L143,174.658c-4.815,4.465-14.44,7.045-20.283,7.045c-12.031,0-18.907-6.187-20.798-13.576
	h52.879v0.069h1.103c-0.543,2.266-0.875,4.74-0.875,7.489c0,18.562,15.813,27.33,28.532,27.33c10.659,0,20.629-4.127,25.783-10.315
	v8.254h26.472v-51.909c0-25.783-18.738-33.174-38.678-33.174c-12.719,0-26.979,3.782-37.639,12.895l9.795,18.388
	c6.707-5.668,14.955-8.937,23.203-8.937c10.66,0,16.847,4.984,16.847,12.205v8.248c-4.985-6.188-14.78-9.794-25.783-9.794
	c-7.869,0-16.91,2.573-22.672,9.292c-1.599-25.905-18.89-42.297-42.29-42.297C92.638,115.871,74.595,135.297,74.595,159.358
	 M12.375,170.186L0,192.7c8.594,7.565,19.941,10.315,31.451,10.315c25.095,0,42.285-13.064,42.285-41.421V86.311H44.171v74.938
	c0,9.627-6.013,15.639-15.293,15.639C22.002,176.887,16.503,173.624,12.375,170.186"/>
</svg>
